<svg xmlns="http://www.w3.org/2000/svg" width="124" height="67" viewBox="0 0 124 67" fill="none"><path d="M0 65.5L1.5 0H20L18.5 23L40 0H58L17.5 47.5L17 65.5H0Z" fill="white"></path><path d="M38 31L26 45C36.8 69.4 50 68 63 65.5C46.2 47.5 39.3333 35 38 31Z" fill="white"></path><path d="M63 46.5L66 0H84.5C83.1667 12.8333 80.5 40.7 80.5 49.5C80.5 57.6847 84.8252 63.3319 87.4414 65.5566C69.4662 67.2458 63 54.9134 63 46.5Z" fill="white"></path><path d="M101.5 40C98.2874 50.7088 87.8333 51 83.5 46.5C83.5 61.3 95.5 65 101.5 65C115.9 64.2 120.5 47.6667 121 39.5L124 0.5H105.5C104.5 20 104.5 30 101.5 40Z" fill="white"></path></svg>